<svg width="24" height="24" viewBox="0 0 24 24" fill="none" xmlns="http://www.w3.org/2000/svg">
<path fill-rule="evenodd" clip-rule="evenodd" d="M8.55299 4C6.03821 4 4 6.03821 4 8.55299C4 12.9303 9.07755 17.1129 11.4497 18.9755C11.452 18.9774 11.4543 18.9792 11.4565 18.981C11.4728 18.9937 11.4949 19.0119 11.5109 19.0245C11.7529 19.205 12.3478 19.6692 12.3478 19.6692C12.3478 19.6692 12.9437 19.2052 13.1848 19.0231C13.1895 19.0208 13.1964 19.0159 13.2011 19.0122C13.2047 19.0094 13.2097 19.0055 13.2133 19.0027C13.2179 18.9987 13.2224 18.9946 13.2269 18.9905C15.5917 17.1345 20.6957 12.9408 20.6957 8.55299C20.6957 6.03821 18.6574 4 16.1427 4C13.7392 4 12.3478 6.08696 12.3478 6.08696C12.3478 6.08696 10.9565 4 8.55299 4Z" stroke="#161412" stroke-width="1.25"/>
</svg>
